<svg width="40" height="40" viewBox="0 0 40 40" fill="none" xmlns="http://www.w3.org/2000/svg">
<path d="M37.904 15.0061L35.0966 15.0153C34.8863 15.0153 34.7034 14.8873 34.6303 14.6952C34.5571 14.5032 34.6028 14.2837 34.7583 14.1374L39.3306 9.82121L33.03 11.7141C32.838 11.769 32.6368 11.7141 32.4996 11.5678C32.3716 11.4215 32.335 11.2112 32.4173 11.0283L32.7831 10.2053L28.7595 12.5371C28.5858 12.6377 28.3663 12.6286 28.2108 12.5097C28.0554 12.3908 27.9731 12.1896 28.0096 11.9976L28.7778 8.4221L25.7052 11.202C25.5681 11.3209 25.3852 11.3666 25.2114 11.3118C25.0377 11.2569 24.9097 11.1197 24.8731 10.946L22.2852 0L20.8404 6.11768C20.7946 6.31886 20.63 6.47432 20.4197 6.50175C20.2094 6.52918 20.0082 6.42859 19.9076 6.25485L18.5085 3.82241L17.2283 8.72387C17.1825 8.89761 17.0545 9.02564 16.8808 9.0805C16.707 9.13537 16.5241 9.08965 16.3961 8.97077L15.7926 8.4221L16.451 11.4855C16.4693 11.5678 16.4693 11.641 16.4418 11.7233L16.3412 12.1073C16.3047 12.2628 16.1949 12.3817 16.0486 12.4457C15.9023 12.5097 15.7377 12.4914 15.6005 12.4183L11.7964 10.2053L13.6345 14.3203C13.7076 14.4758 13.6893 14.6587 13.5979 14.805C13.5064 14.9513 13.3418 15.0336 13.1681 15.0336L6.6755 15.0153L9.62003 17.9233C9.74805 18.0513 9.80292 18.2342 9.7572 18.4079C9.71148 18.5817 9.58345 18.7188 9.40971 18.7645L0 21.5536L7.75455 23.6477C7.91001 23.6934 8.02888 23.794 8.0929 23.9403L9.25425 24.0592C9.28168 24.0592 9.30912 24.0684 9.33655 24.0775L10.0315 24.2604C10.2144 24.3061 10.3516 24.4524 10.3882 24.6353C10.4339 24.8182 10.3699 25.0011 10.2327 25.1291L8.24835 26.9123L11.8513 26.5282C12.0159 26.51 12.1805 26.574 12.2902 26.702C12.4 26.83 12.4365 27.0038 12.3908 27.1592L9.5103 38.0229L13.1041 34.6211C13.2047 34.5297 13.3236 34.484 13.4516 34.484C13.5339 34.484 13.6253 34.5023 13.7076 34.548C13.8997 34.6577 14.0003 34.8863 13.9454 35.1058L12.7932 39.9158L20.1454 32.5911C20.2734 32.463 20.4654 32.4082 20.6483 32.463C20.8312 32.5179 20.9592 32.6642 20.9958 32.8471L21.5445 35.4533L21.828 34.8132C21.9103 34.6303 22.0931 34.5114 22.2943 34.5114C22.4955 34.5114 22.6784 34.6303 22.7607 34.8132L23.0442 35.4533L23.5928 32.8471C23.6294 32.6642 23.7666 32.5179 23.9403 32.463C24.1232 32.4082 24.3061 32.4539 24.4433 32.5911L31.8046 39.9158L29.5185 30.3689C29.4728 30.1952 29.5276 30.0123 29.6557 29.8843C29.7837 29.7563 29.9666 29.7105 30.1403 29.7563L34.1273 30.8536L32.0332 27.2598C31.9418 27.0952 31.9418 26.894 32.0424 26.7294C32.143 26.5648 32.335 26.4825 32.5179 26.5008L36.322 26.9123L34.2188 25.0285C34.0725 24.8914 34.0176 24.6902 34.0725 24.4982C34.1365 24.3061 34.3011 24.169 34.5023 24.1507L35.7093 24.0226L31.8869 21.828C31.7498 21.7457 31.6583 21.6085 31.64 21.453C31.6217 21.2976 31.6766 21.1421 31.7863 21.0324L37.904 15.0061ZM31.6034 14.1557L29.235 16.387H30.1312C30.3324 16.387 30.5244 16.515 30.5975 16.6979C30.6798 16.8899 30.6341 17.1094 30.4878 17.2466L27.2141 20.4746L29.4179 21.7457C29.6099 21.8554 29.7105 22.0749 29.6648 22.2852C29.6191 22.5047 29.4362 22.6601 29.2167 22.6875L28.8692 22.7241L29.7745 23.538C29.9391 23.6843 29.9849 23.9221 29.9026 24.1232C29.8111 24.3244 29.6008 24.4433 29.3905 24.4159L27.4976 24.2147L28.4486 25.8607C28.5492 26.0344 28.54 26.263 28.412 26.4277C28.284 26.5923 28.0737 26.6563 27.8725 26.6105L25.9156 26.071L27.1684 31.2925C27.2232 31.512 27.1226 31.7406 26.9215 31.8503C26.7203 31.9601 26.4734 31.9235 26.3179 31.768L22.3492 27.8176L22.0749 29.1344C22.0291 29.3539 21.8462 29.5094 21.6359 29.5368C21.4165 29.5551 21.2061 29.4362 21.1238 29.235L21.0964 29.1619L21.069 29.235C20.9775 29.4362 20.7763 29.5551 20.5569 29.5368C20.3374 29.5185 20.1637 29.3539 20.1179 29.1344L19.8436 27.8176L15.8749 31.768C15.7743 31.8686 15.6463 31.9144 15.5182 31.9144C15.4359 31.9144 15.3445 31.8961 15.2713 31.8503C15.0702 31.7406 14.9787 31.512 15.0244 31.2925L15.4725 29.4362L14.0551 30.7439C13.8905 30.8993 13.6436 30.9268 13.4516 30.817C13.2595 30.6981 13.159 30.4695 13.223 30.2501L14.8324 24.2055L12.7932 24.425C12.5737 24.4433 12.3634 24.3244 12.2811 24.1324C12.1896 23.9312 12.2445 23.6934 12.4091 23.5471L13.3144 22.7333L12.9669 22.6967C12.7932 22.6784 12.6377 22.5687 12.5646 22.4224L8.00145 21.1878C7.78198 21.133 7.62653 20.9318 7.62653 20.7032C7.62653 20.4746 7.77284 20.2734 7.99231 20.2094L13.1407 18.6822L11.6958 17.2557C11.5495 17.1094 11.5038 16.8899 11.5861 16.707C11.6684 16.515 11.8513 16.3961 12.0525 16.3961L15.4177 16.4053L14.4026 14.1466C14.3112 13.9454 14.366 13.7076 14.5306 13.5613C14.6952 13.415 14.933 13.3876 15.125 13.4973L17.0271 14.5946L16.6796 12.9669C16.6339 12.7475 16.7345 12.528 16.9174 12.4183C17.1094 12.3085 17.3471 12.336 17.5117 12.4823L17.841 12.784L18.4902 10.315C18.5451 10.1138 18.7097 9.96752 18.9109 9.94009C19.112 9.91265 19.3132 10.0132 19.4138 10.187L19.8619 10.9643L20.6117 7.80027C20.6666 7.57166 20.8678 7.40706 21.1055 7.40706C21.2244 7.40706 21.3342 7.44364 21.4165 7.51679C21.5079 7.58995 21.5719 7.68139 21.5993 7.80027L23.0533 13.9637L24.6993 12.4823C24.8639 12.336 25.1017 12.3085 25.2937 12.4183C25.4858 12.528 25.5772 12.7475 25.5315 12.9669L25.184 14.5946L27.0861 13.4973C27.2781 13.3876 27.5158 13.415 27.6805 13.5613C27.8451 13.7076 27.8908 13.9454 27.7993 14.1466L27.7079 14.3477L31.1371 13.3236C31.3657 13.2595 31.6034 13.351 31.7223 13.5522C31.8138 13.7442 31.768 14.0003 31.6034 14.1557Z" fill="#4370F5"/>
<path d="M26.0345 20.228C25.9247 20.3377 25.8699 20.4932 25.8882 20.6486C25.9064 20.8041 25.9979 20.9412 26.1351 21.0235L27.5616 21.8465C27.3879 21.8831 27.2507 22.0111 27.1958 22.1849C27.1318 22.3769 27.1867 22.5872 27.3421 22.7153L27.9274 23.2456L26.6014 23.1085C26.4094 23.0902 26.2265 23.1725 26.1259 23.3371C26.0253 23.5017 26.0162 23.7029 26.1168 23.8675L26.9489 25.3032L25.3578 24.8642C25.184 24.8185 25.0011 24.8642 24.8731 24.9923C24.7451 25.1203 24.6902 25.3032 24.7359 25.4769L25.7693 29.8023L22.4041 26.4371C22.3126 26.3456 22.1755 26.2908 22.0475 26.2908C22.0017 26.2908 21.9469 26.2999 21.9011 26.3091C21.7274 26.3639 21.5902 26.5102 21.5537 26.6931L21.3799 27.4978C21.2976 27.4338 21.197 27.4064 21.0873 27.4064C20.9775 27.4064 20.877 27.443 20.7947 27.4978L20.6209 26.6931C20.5843 26.5102 20.4472 26.3639 20.2734 26.3091C20.0997 26.2542 19.8985 26.3091 19.7705 26.4371L16.4053 29.784L16.8351 28.0008C16.8899 27.7813 16.7894 27.5527 16.5973 27.443C16.4053 27.3332 16.1584 27.3607 15.9938 27.5161L14.6678 28.7781L16.0029 23.7486C16.0487 23.584 16.0029 23.4194 15.9023 23.2914C15.7926 23.1633 15.628 23.0993 15.4634 23.1176L14.2472 23.2456L14.7776 22.7701C14.9147 22.6421 14.9787 22.4592 14.933 22.2763C14.8873 22.0934 14.7501 21.9563 14.5764 21.9014L14.2015 21.8008C14.174 21.7917 14.1466 21.7917 14.1192 21.7825L13.6071 21.7277C13.5431 21.6545 13.4516 21.5905 13.351 21.5631L9.98584 20.6578L14.2472 19.3958C14.4209 19.3409 14.549 19.2038 14.5947 19.03C14.6404 18.8563 14.5855 18.6734 14.4575 18.5454L13.287 17.384L16.2041 17.3932C16.3779 17.3932 16.5333 17.3109 16.6248 17.1645C16.7162 17.0182 16.7345 16.8353 16.6613 16.6799L15.9664 15.1345L17.3838 15.9575C17.5209 16.0398 17.6855 16.0489 17.8318 15.9849C17.9781 15.9209 18.0879 15.802 18.1245 15.6466L18.1793 15.4362C18.1976 15.3631 18.1976 15.2808 18.1885 15.1985L17.969 14.1834C18.0604 14.2109 18.161 14.2109 18.2616 14.1834C18.4354 14.1286 18.5634 14.0005 18.6091 13.8268L19.1486 11.751L19.615 12.5649C19.7156 12.7477 19.9168 12.8392 20.1271 12.8118C20.3283 12.7843 20.502 12.6289 20.5478 12.4277L21.0964 10.105L22.2578 15.0156C22.3035 15.1893 22.4315 15.3265 22.5961 15.3814C22.7699 15.4362 22.9528 15.3905 23.0899 15.2716L24.1964 14.2657L23.9404 15.4728C23.8946 15.6648 23.9769 15.8752 24.1415 15.9849C24.3062 16.0946 24.5165 16.1129 24.6902 16.0123L26.2814 15.0887C26.2722 15.2168 26.3179 15.3448 26.4094 15.4454C26.5374 15.5917 26.7477 15.6557 26.9398 15.5917L29.3722 14.8601L27.6348 16.497C27.4793 16.6433 27.4336 16.8628 27.5067 17.0548C27.5799 17.2468 27.7719 17.3749 27.9731 17.3749H28.9058L26.0345 20.228Z" fill="#B544E6"/>
</svg>
